<svg width="600" height="256" viewBox="0 0 600 256" fill="none" xmlns="http://www.w3.org/2000/svg">
<path d="M122.394 0.105191C54.4121 2.98197 0 59.2498 0 127.988C0 196.726 54.4121 252.993 122.394 255.87C125.37 255.992 129.31 253.818 129.31 249.454C129.31 245.091 125.637 242.527 122.819 242.405C60.4619 239.76 13.4439 191.045 13.4439 127.975C13.4439 64.9058 60.4619 16.2158 122.819 13.5706C125.637 13.4487 129.014 11.6363 129.014 6.54539C129.014 2.18183 126.115 -0.0522103 122.394 0.105191Z" fill="white"/>
<path d="M167.368 37.2474C163.845 16.4517 147.369 5.99296 142.128 0.28816C141.448 -0.455414 140.261 0.373488 140.718 1.26334C143.908 7.46791 156.295 23.3511 156.295 42.5865C156.295 73.2681 148.049 98.1882 148.037 124.859C148.037 151.518 156.295 182.732 156.295 213.413C156.295 232.637 143.908 248.532 140.718 254.737C140.261 255.627 141.448 256.455 142.128 255.712C147.369 250.007 163.845 239.548 167.368 218.753C171.646 193.435 161.431 152.985 161.431 126.326C161.431 99.6549 171.658 62.5899 167.368 37.2718V37.2474Z" fill="white"/>
<path d="M199.744 46.5527C196.368 26.2396 183.304 16.0405 178.295 10.4663C177.642 9.73606 176.504 10.5393 176.952 11.4156C180.001 17.4645 190.538 32.9823 190.538 51.7618C190.538 81.7141 186.246 99.8768 186.246 125.922C186.246 151.956 190.538 174.285 190.538 204.237C190.538 223.005 180.001 238.535 176.952 244.584C176.517 245.46 177.654 246.263 178.295 245.533C183.316 239.959 196.38 229.76 199.744 209.447C203.845 184.728 199.45 151.968 199.45 125.922C199.45 99.889 203.833 71.2837 199.744 46.5527Z" fill="white"/>
<path d="M226.35 62.1054C222.897 44.5509 210.999 31.2448 205.875 26.4276C205.206 25.7965 204.043 26.4907 204.501 27.248C207.62 32.4754 216.975 41.8134 219.848 68.0188C222.72 94.2242 220.538 104.203 220.538 126.712C220.538 149.21 222.812 166.181 219.848 190.889C216.883 215.598 207.62 223.524 204.501 228.751C204.055 229.508 205.219 230.203 205.875 229.572C211.011 224.754 222.909 211.448 226.35 193.894C230.547 172.532 230.489 154.951 230.489 126.712C230.489 98.4724 230.534 83.4779 226.35 62.1054Z" fill="white"/>
<path d="M252.015 95.7832C250.055 89.4552 245.516 86.4526 246.431 91.5902C247.346 96.7278 248.506 113.207 248.651 127.513C248.796 141.819 247.88 157.679 247.156 162.91C246.432 168.141 250.055 165.819 252.003 159.292C253.951 152.765 256 138.484 256 127.513C256 116.542 254.615 105.937 252.015 95.7832Z" fill="white"/>
<path d="M339.102 127.745C339.102 113.74 349.854 102.955 363.258 102.955C371.496 102.955 378.617 107.017 383.224 113.319L393.557 105.896C386.576 96.5126 376.662 90.3501 363.258 90.3501C341.616 90.3501 325 107.017 325 127.745C325 148.333 341.616 165 363.258 165C376.662 165 386.576 158.838 393.557 149.594L383.224 142.031C378.617 148.473 371.496 152.535 363.258 152.535C349.854 152.535 339.102 141.471 339.102 127.745Z" fill="white"/>
<path d="M475.94 127.605C475.94 107.017 458.905 90.3501 437.682 90.3501C416.458 90.3501 399.424 107.017 399.424 127.605C399.424 148.193 416.458 165 437.682 165C458.905 165 475.94 148.193 475.94 127.605ZM461.837 127.605C461.837 141.471 451.086 152.395 437.682 152.395C424.278 152.395 413.526 141.471 413.526 127.605C413.526 113.88 424.278 102.955 437.682 102.955C451.086 102.955 461.837 113.88 461.837 127.605Z" fill="white"/>
<path d="M520.722 104.496V91.3305H515.835C508.015 91.3305 502.291 94.972 498.8 100.714V91.8908H484.837V163.319H498.94V122.703C498.94 111.639 505.642 104.496 514.857 104.496H520.722Z" fill="white"/>
<path d="M560.419 163.319H573.963V150.854H564.608C560.279 150.854 557.626 148.754 557.626 144.832V104.356H573.963V91.8908H557.626V70.8824L543.524 75.5699V91.8908H529.98V104.356H543.524V147.913C543.524 156.877 549.528 163.319 560.419 163.319Z" fill="white"/>
<path d="M591.762 81.9468C596.37 81.9468 600 78.1653 600 73.4034C600 68.7815 596.37 65 591.762 65C587.015 65 583.245 68.7815 583.245 73.4034C583.245 78.1653 587.015 81.9468 591.762 81.9468ZM598.743 91.8908H584.641V163.319H598.743V91.8908Z" fill="white"/>
</svg>
