<svg width="617" height="200" viewBox="0 0 617 200" fill="none" xmlns="http://www.w3.org/2000/svg">
<path d="M275.174 99.9016C275.174 81.6944 289.283 67.6747 306.873 67.6747C317.684 67.6747 327.029 72.9549 333.076 81.1481L346.636 71.4983C337.474 59.2994 324.464 51.2882 306.873 51.2882C278.472 51.2882 256.667 72.9549 256.667 99.9016C256.667 126.666 278.472 148.333 306.873 148.333C324.464 148.333 337.474 140.322 346.636 128.305L333.076 118.473C327.029 126.848 317.684 132.129 306.873 132.129C289.283 132.129 275.174 117.745 275.174 99.9016Z" fill="white"/>
<path d="M454.749 99.7196C454.749 72.9549 432.394 51.2882 404.542 51.2882C376.69 51.2882 354.335 72.9549 354.335 99.7196C354.335 126.484 376.69 148.333 404.542 148.333C432.394 148.333 454.749 126.484 454.749 99.7196ZM436.242 99.7196C436.242 117.745 422.133 131.946 404.542 131.946C386.951 131.946 372.842 117.745 372.842 99.7196C372.842 81.8764 386.951 67.6747 404.542 67.6747C422.133 67.6747 436.242 81.8764 436.242 99.7196Z" fill="white"/>
<path d="M513.517 69.6776V52.5627H507.104C496.843 52.5627 489.33 57.2966 484.749 64.7616V53.291H466.426V146.148H484.933V93.347C484.933 78.9633 493.728 69.6776 505.821 69.6776H513.517Z" fill="white"/>
<path d="M565.613 146.148H583.387V129.944H571.11C565.43 129.944 561.948 127.213 561.948 122.115V69.4955H583.387V53.291H561.948V25.9801L543.441 32.0738V53.291H525.668V69.4955H543.441V126.12C543.441 137.773 551.321 146.148 565.613 146.148Z" fill="white"/>
<path d="M605.717 40.3638C611.764 40.3638 616.528 35.4479 616.528 29.2574C616.528 23.249 611.764 18.333 605.717 18.333C599.487 18.333 594.54 23.249 594.54 29.2574C594.54 35.4479 599.487 40.3638 605.717 40.3638ZM614.879 53.291H596.372V146.148H614.879V53.291Z" fill="white"/>
<path d="M100.158 16.0003C53.8642 16.1151 16.3711 53.679 16.3711 100C16.3711 146.277 53.7929 183.813 100.026 183.999C100.243 189.331 100.687 194.663 101.359 199.995C101.03 199.998 100.701 200 100.371 200C45.1426 200 0.371094 155.228 0.371094 100C0.371094 44.7715 45.1426 0 100.371 0C100.823 0 101.274 0.00299907 101.725 0.00897812C100.975 5.33941 100.453 10.6698 100.158 16.0003Z" fill="white"/>
<path d="M180.614 159.685C181.232 152.748 182.234 145.811 183.621 138.875C188.621 113.875 188.621 88.8745 183.621 63.8745C182.028 55.9102 180.943 47.9458 180.365 39.9814C192.927 56.6978 200.371 77.4793 200.371 99.9995C200.371 122.371 193.025 143.026 180.614 159.685Z" fill="white"/>
<path d="M148.221 187.83C147.224 171.512 148.357 155.193 151.621 138.875C156.621 113.875 156.621 88.875 151.621 63.875C148.181 46.6728 147.108 29.4707 148.402 12.2686C153.905 15.288 159.094 18.8103 163.906 22.7735C163.643 36.474 164.881 50.1745 167.621 63.875C172.621 88.875 172.621 113.875 167.621 138.875C165.063 151.668 163.813 164.46 163.873 177.253C159.018 181.249 153.779 184.796 148.221 187.83Z" fill="white"/>
<path d="M117.187 198.592C114.829 178.686 115.64 158.781 119.621 138.875C124.621 113.875 124.621 88.8751 119.621 63.8751C115.46 43.072 114.762 22.2689 117.526 1.46582C122.853 2.38673 128.035 3.7291 133.038 5.45734C130.866 24.9299 131.727 44.4025 135.621 63.8751C140.621 88.8751 140.621 113.875 135.621 138.875C131.904 157.463 130.95 176.05 132.761 194.638C127.738 196.357 122.535 197.687 117.187 198.592Z" fill="white"/>
</svg>
