<svg width="256" height="256" viewBox="0 0 256 256" fill="none" xmlns="http://www.w3.org/2000/svg">
<g clip-path="url(#clip0_612_3664)">
<circle cx="128" cy="128" r="128" fill="black"/>
<path d="M126.415 53.8974C86.2057 53.9971 53.6403 86.6241 53.6403 126.857C53.6403 167.052 86.1438 199.655 126.301 199.816C126.489 204.448 126.875 209.079 127.458 213.71C127.173 213.713 126.887 213.714 126.6 213.714C78.6304 213.714 39.7432 174.827 39.7432 126.857C39.7432 78.8873 78.6304 40 126.6 40C126.993 40 127.385 40.0026 127.776 40.0078C127.125 44.6377 126.672 49.2675 126.415 53.8974Z" fill="white"/>
<path d="M196.297 178.697C196.834 172.672 197.704 166.647 198.909 160.622C203.252 138.908 203.252 117.194 198.909 95.4794C197.526 88.5618 196.583 81.6442 196.081 74.7266C206.992 89.2459 213.458 107.296 213.458 126.857C213.458 146.287 207.077 164.228 196.297 178.697Z" fill="white"/>
<path d="M168.161 203.144C167.295 188.97 168.28 174.797 171.115 160.623C175.457 138.909 175.457 117.194 171.115 95.4801C168.126 80.5388 167.194 65.5975 168.318 50.6562C173.099 53.2789 177.605 56.3382 181.785 59.7806C181.556 71.6804 182.632 83.5803 185.012 95.4801C189.355 117.194 189.355 138.909 185.012 160.623C182.789 171.734 181.704 182.846 181.756 193.957C177.539 197.428 172.989 200.508 168.161 203.144Z" fill="white"/>
<path d="M141.207 212.492C139.158 195.202 139.863 177.913 143.321 160.623C147.663 138.909 147.663 117.195 143.321 95.4803C139.707 77.4114 139.1 59.3424 141.501 41.2734C146.127 42.0733 150.629 43.2393 154.974 44.7404C153.087 61.6537 153.835 78.567 157.218 95.4803C161.561 117.195 161.561 138.909 157.218 160.623C153.989 176.768 153.161 192.913 154.733 209.057C150.371 210.55 145.851 211.705 141.207 212.492Z" fill="white"/>
</g>
<defs>
<clipPath id="clip0_612_3664">
<rect width="256" height="256" fill="white"/>
</clipPath>
</defs>
</svg>
